<svg id="visual" viewBox="0 0 960 540" width="960" height="540" xmlns="http://www.w3.org/2000/svg" xmlns:xlink="http://www.w3.org/1999/xlink" version="1.1"><rect x="0" y="0" width="960" height="540" fill="#001220"></rect><defs><linearGradient id="grad1_0" x1="43.8%" y1="0%" x2="100%" y2="100%"><stop offset="14.444444444444446%" stop-color="#001220" stop-opacity="1"></stop><stop offset="85.55555555555554%" stop-color="#001220" stop-opacity="1"></stop></linearGradient></defs><defs><linearGradient id="grad2_0" x1="0%" y1="0%" x2="56.3%" y2="100%"><stop offset="14.444444444444446%" stop-color="#001220" stop-opacity="1"></stop><stop offset="85.55555555555554%" stop-color="#001220" stop-opacity="1"></stop></linearGradient></defs><g transform="translate(960, 0)"><path d="M0 243C-22.4 232.5 -44.7 222 -70.5 216.8C-96.2 211.6 -125.3 211.7 -142.8 196.6C-160.4 181.5 -166.4 151.2 -176.4 128.1C-186.3 105 -200.3 89.1 -212.1 68.9C-223.9 48.7 -233.4 24.4 -243 0L0 0Z" fill="#aef6ed"></path></g><g transform="translate(0, 540)"><path d="M0 -243C21.2 -226.6 42.4 -210.2 66.4 -204.5C90.5 -198.7 117.5 -203.6 142.2 -195.8C167 -188 189.5 -167.4 196.6 -142.8C203.7 -118.3 195.5 -89.7 200.7 -65.2C205.8 -40.7 224.4 -20.4 243 0L0 0Z" fill="#aef6ed"></path></g></svg>