<svg id="visual" viewBox="0 0 960 540" width="960" height="540" xmlns="http://www.w3.org/2000/svg" xmlns:xlink="http://www.w3.org/1999/xlink" version="1.1"><rect x="0" y="0" width="960" height="540" fill="#FFFFFF"></rect><defs><linearGradient id="grad1_0" x1="43.8%" y1="0%" x2="100%" y2="100%"><stop offset="14.444444444444446%" stop-color="#ffffff" stop-opacity="1"></stop><stop offset="85.55555555555554%" stop-color="#ffffff" stop-opacity="1"></stop></linearGradient></defs><defs><linearGradient id="grad2_0" x1="0%" y1="0%" x2="56.3%" y2="100%"><stop offset="14.444444444444446%" stop-color="#ffffff" stop-opacity="1"></stop><stop offset="85.55555555555554%" stop-color="#ffffff" stop-opacity="1"></stop></linearGradient></defs><g transform="translate(960, 0)"><path d="M0 270C-32.2 253.1 -64.3 236.3 -90.7 219C-117.1 201.6 -137.7 183.8 -166.2 166.2C-194.6 148.5 -230.8 131 -249.4 103.3C-268.1 75.7 -269 37.8 -270 0L0 0Z" fill="#00DBDE"></path></g><g transform="translate(0, 540)"><path d="M0 -270C31.3 -255.2 62.5 -240.3 94.5 -228.2C126.5 -216.1 159.2 -206.6 186.7 -186.7C214.2 -166.7 236.4 -136.2 249.4 -103.3C262.5 -70.5 266.2 -35.2 270 0L0 0Z" fill="#00DBDE"></path></g></svg>